<?xml version="1.0" encoding="UTF-8"?>
<svg
  width="200"
  height="200"
  viewBox="0 0 200 200"
  xmlns="http://www.w3.org/2000/svg">

				<path fill="#FFFFFF" d="m133 100 61.9-61.9c6.84-6.84 6.84-17.9 0-24.7l-8.25-8.25c-6.84-6.84-17.9-6.84-24.7 0l-61.9 61.9-61.9-61.9c-6.84-6.84-17.9-6.84-24.7 0l-8.26 8.25c-6.84 6.84-6.84 17.9 0 24.7l61.9 61.9-61.9 61.9c-6.84 6.84-6.84 17.9 0 24.7l8.25 8.25c6.84 6.84 17.9 6.84 24.7 0l61.9-61.9 61.9 61.9c6.84 6.84 17.9 6.84 24.7 0l8.25-8.25c6.84-6.84 6.84-17.9 0-24.7z"/>

</svg>
