<?xml version="1.0" standalone="no"?>
<!DOCTYPE svg PUBLIC "-//W3C//DTD SVG 20010904//EN"
 "http://www.w3.org/TR/2001/REC-SVG-20010904/DTD/svg10.dtd">
<svg version="1.0" xmlns="http://www.w3.org/2000/svg"
 width="512.000000pt" height="512.000000pt" viewBox="0 0 512.000000 512.000000"
 preserveAspectRatio="xMidYMid meet">
<metadata>
Created by potrace 1.11, written by Peter Selinger 2001-2013
</metadata>
<g transform="translate(0.000000,512.000000) scale(0.100000,-0.100000)"
fill="#000000" stroke="none">
<path d="M2519 5115 c-3 -2 -32 -5 -67 -6 -34 -1 -62 -5 -62 -8 0 -3 -21 -6
-48 -7 -26 0 -65 -3 -87 -7 -22 -3 -56 -9 -75 -12 -19 -3 -82 -17 -140 -31
-58 -14 -117 -28 -132 -31 -16 -3 -25 -10 -21 -16 3 -6 1 -7 -6 -3 -11 7 -160
-39 -171 -53 -3 -3 -14 -8 -25 -9 -48 -9 -355 -172 -363 -193 -2 -5 -10 -9
-17 -9 -8 0 -20 -6 -27 -13 -7 -7 -40 -33 -73 -57 -33 -24 -75 -58 -93 -75
-19 -16 -40 -34 -48 -38 -8 -4 -14 -15 -14 -22 0 -8 -4 -14 -9 -12 -12 3 -122
-111 -200 -208 -70 -87 -146 -198 -181 -265 -14 -25 -30 -52 -38 -61 -7 -9
-14 -26 -15 -37 0 -11 -4 -19 -8 -16 -4 2 -11 -6 -15 -18 -4 -13 -21 -54 -39
-93 -17 -38 -42 -97 -54 -130 -13 -33 -26 -69 -31 -80 -10 -26 -49 -154 -55
-180 -2 -11 -13 -54 -24 -95 -21 -84 -28 -120 -45 -235 -4 -27 -10 -61 -12
-75 -20 -120 -26 -232 -28 -475 -1 -235 10 -428 24 -433 5 -2 7 -9 4 -16 -2
-6 0 -43 6 -81 6 -39 13 -86 16 -105 7 -46 51 -223 69 -280 8 -25 22 -67 30
-94 42 -131 133 -328 218 -468 59 -98 125 -196 144 -216 7 -8 26 -30 41 -50
15 -21 44 -55 64 -76 21 -22 38 -44 38 -49 0 -6 2 -8 5 -5 3 3 33 -24 68 -59
34 -35 105 -96 157 -136 52 -39 101 -78 108 -85 7 -6 20 -12 28 -12 8 0 14 -3
14 -8 0 -10 72 -48 84 -44 6 2 8 0 3 -4 -10 -11 131 -86 146 -78 6 4 9 4 5 -1
-7 -7 124 -74 155 -79 7 -1 22 -8 35 -15 13 -7 30 -10 38 -7 9 3 12 1 9 -4 -3
-6 4 -10 17 -10 13 0 28 -4 34 -9 10 -9 96 -34 104 -30 3 1 14 -3 25 -9 18 -9
73 -21 125 -26 9 -1 20 -5 25 -8 6 -3 37 -9 70 -13 33 -5 69 -9 80 -11 17 -3
71 -8 195 -19 14 -1 31 3 39 9 11 8 13 8 7 -2 -6 -10 33 -11 186 -8 273 6 491
41 720 116 616 202 1075 677 1318 1365 43 123 81 268 72 276 -4 4 -41 17 -82
29 -41 12 -309 93 -595 180 -286 87 -529 160 -539 162 -22 3 -19 11 -61 -182
-122 -565 -430 -836 -950 -835 -110 0 -181 10 -276 36 -73 20 -201 76 -207 91
-2 4 -12 8 -22 8 -10 0 -21 7 -24 16 -4 9 -13 14 -21 10 -8 -3 -14 -2 -12 2 1
5 -30 39 -69 78 -39 38 -81 85 -94 104 -13 19 -27 37 -31 40 -4 3 -21 31 -37
63 -16 31 -35 64 -42 72 -7 8 -9 15 -5 15 4 0 3 6 -2 13 -8 10 -46 102 -48
117 0 3 -8 28 -18 55 -15 47 -35 125 -43 170 -1 11 -5 29 -8 41 -2 12 -8 45
-11 75 -4 30 -9 65 -11 79 -13 101 -18 192 -17 375 0 239 7 343 28 465 3 14 7
41 10 60 14 87 54 231 76 273 5 10 7 22 4 27 -4 6 -2 10 2 10 7 0 43 71 43 85
0 3 14 28 32 57 49 83 146 198 207 249 57 47 162 111 200 124 12 3 19 10 16
15 -3 4 4 6 14 3 10 -3 30 1 42 8 28 15 25 15 109 30 36 6 72 14 80 16 33 12
189 14 289 3 242 -24 390 -89 537 -235 113 -112 191 -264 245 -481 12 -46 25
-84 30 -84 5 0 87 18 181 40 379 87 956 219 1011 231 32 7 60 16 63 20 7 12
-50 201 -96 318 -229 588 -643 996 -1202 1185 -129 44 -311 88 -413 101 -27 3
-66 8 -85 11 -41 7 -496 15 -501 9z m-509 -789 c0 -2 -7 -7 -16 -10 -8 -3 -12
-2 -9 4 6 10 25 14 25 6z m-329 -2653 c13 -16 12 -17 -3 -4 -17 13 -22 21 -14
21 2 0 10 -8 17 -17z m174 -873 c3 -6 -1 -7 -9 -4 -18 7 -21 14 -7 14 6 0 13
-4 16 -10z"/>
</g>
</svg>
